<svg width="297" height="387" viewBox="0 0 297 387" fill="none" xmlns="http://www.w3.org/2000/svg">
    <path d="M16.7865 149.392C19.9775 147.158 19.7185 138.694 19.9739 135.545C20.6966 126.632 20.5487 117.673 20.5487 108.739C20.5487 88.3851 22.4119 69.2893 25.147 49.1183C27.9436 28.4929 52.4565 13.2556 70.9207 8.72661C84.77 5.32962 98.7396 4.76988 112.828 3.08327C132.869 0.683971 155.122 0.246462 175.218 2.35173C189.916 3.89152 205.286 8.90601 219.111 14.0564C230.774 18.4017 245.823 22.385 252.344 34.1216C268.04 62.3753 274.548 93.3318 271.468 125.669C270.92 131.431 269.338 136.774 268.124 142.39C267.434 145.579 265.637 148.547 265.146 151.743C264.291 157.3 260.391 163.584 260.391 169.144" stroke="#fffefe" stroke-linecap="round"/>
    <path d="M29.0137 145.63C40.1563 138.614 52.4136 135.599 65.3819 134.134C90.8217 131.26 116.634 132.462 142.194 132.462C161.669 132.462 181.103 129.849 200.508 129.849C206.493 129.849 211.909 131.566 217.752 132.253C222.539 132.816 227.453 131.898 232.174 133.089C244.671 136.244 257.705 149.665 263.212 160.679" stroke="#fffefe" stroke-linecap="round"/>
    <path d="M39.3598 118.354C42.0508 113.869 55.3799 111.699 59.8953 110.307C76.4786 105.192 92.4128 103.305 109.693 103.305C132.196 103.305 154.7 103.305 177.204 103.305C197.921 103.305 215.662 113.033 234.996 119.399C241.053 121.393 261.265 120.911 263.212 128.7" stroke="#fffefe" stroke-linecap="round"/>
    <path d="M259.45 131.521C262.022 132.486 260.391 146.753 260.391 149.183C260.391 151.738 260.651 151.908 260.182 149.183C259.628 145.974 257.941 142.94 256.628 139.987" stroke="#fffefe" stroke-linecap="round"/>
    <path d="M250.985 134.343C250.985 137.54 251.999 141.361 249.104 142.808" stroke="#fffefe" stroke-linecap="round"/>
    <path d="M243.461 121.175C243.461 125.544 244.157 130.252 242.52 134.343" stroke="#fffefe" stroke-linecap="round"/>
    <path d="M236.877 123.997C236.877 126.783 236.946 127.69 234.996 129.64" stroke="#fffefe" stroke-linecap="round"/>
    <path d="M223.709 114.591C223.709 120.244 222.768 137.174 222.768 131.521" stroke="#fffefe" stroke-linecap="round"/>
    <path d="M212.422 117.413C212.334 122.189 212.715 138.105 205.838 138.105" stroke="#fffefe" stroke-linecap="round"/>
    <path d="M194.552 104.245C194.552 108.461 196.978 128.564 192.671 129.64" stroke="#fffefe" stroke-linecap="round"/>
    <path d="M177.622 112.71C177.622 119.143 177.49 123.346 174.382 129.118C174.19 129.475 170.097 136.116 170.097 134.343" stroke="#fffefe" stroke-linecap="round"/>
    <path d="M155.048 108.948C155.048 114.393 155.493 126.126 150.345 128.7" stroke="#fffefe" stroke-linecap="round"/>
    <path d="M135.297 114.591C132.241 119.939 134.933 126.685 131.534 131.783C130.581 133.213 129.771 133.728 128.399 132.514C124.242 128.837 120.226 126.013 115.545 123.056" stroke="#fffefe" stroke-linecap="round"/>
    <path d="M96.7338 111.77V132.462" stroke="#fffefe" stroke-linecap="round"/>
    <path d="M61.9332 112.71C61.9332 119.262 64.1209 130.198 60.0521 135.284" stroke="#fffefe" stroke-linecap="round"/>
    <path d="M42.1815 123.056C38.825 125.993 40.3004 132.989 40.3004 137.165" stroke="#fffefe" stroke-linecap="round"/>
    <path d="M20.5487 169.144C21.1174 174.547 23.1153 179.507 23.3181 185.185C23.6769 195.231 23.3704 205.335 23.3704 215.388C23.3704 234.118 20.9473 254.462 25.0425 272.814C31.2742 300.741 39.9836 327.322 58.2755 349.678C62.8216 355.235 67.8784 357.255 74.7875 357.255C81.7391 357.255 82.3997 355.924 87.3282 351.612" stroke="#fffefe" stroke-linecap="round"/>
    <path d="M85.4471 354.433C76.4888 358.166 97.6244 366.111 99.4509 367.079C119.602 377.752 139.286 383.616 162.155 385.681C166.335 386.058 169.969 385.936 170.097 380.56C170.236 374.736 173.434 374.382 178.667 373.245C181.102 372.715 184.805 371.507 187.236 372.722C188.962 373.585 190.162 374.185 192.148 374.185C194.419 374.185 196.961 373.864 199.202 374.237C201.337 374.593 202.428 375.537 204.898 374.655C207.559 373.705 210.281 371.784 211.482 374.185" stroke="#fffefe" stroke-linecap="round"/>
    <path d="M219.947 372.304C219.947 362.672 219.607 353.426 218.275 343.878C216.453 330.824 213.302 312.914 218.17 300.404C228.354 274.236 257.028 260.931 268.542 236.028C276.012 219.873 282.405 203.462 286.726 186.178C288.922 177.393 291.442 167.795 295.139 159.477C296.701 155.962 296.472 151.451 296.027 147.668C295.621 144.21 293.046 142.397 291.429 145.63" stroke="#fffefe" stroke-linecap="round"/>
    <path d="M62.8737 171.025C62.8737 186.622 62.6407 201.745 65.4864 217.112C66.6543 223.419 67.6377 228.374 72.8018 232.475C74.4225 233.762 75.2901 234.042 77.4001 234.042C81.7625 234.042 85.5345 235.696 89.7318 235.923C99.5065 236.452 108.823 242.942 118.785 241.41C127.04 240.14 127.526 226.612 127.72 220.3C127.995 211.365 127.682 204.004 131.378 195.688C133.347 191.258 134.568 183.28 132.684 178.758C130.009 172.338 119.364 175.195 114.552 176.198C106.56 177.863 101.175 178.434 95.0094 183.984C93.2131 185.6 90.8979 185.512 89.0526 184.036C82.7019 178.955 77.4428 172.229 70.3982 168.203" stroke="#fffefe" stroke-linecap="round"/>
    <path d="M59.1115 160.679C59.1115 172.181 54.2749 183.087 51.6393 194.069C49.4113 203.352 46.1378 218.863 49.1834 228.19C53.9046 242.649 65.7021 253.213 80.9011 256.877C92.4936 259.671 105.581 261.318 117.531 261.318C125.361 261.318 134.985 257.842 137.909 249.823C139.997 244.098 139.059 236.991 139.059 231.011C139.059 219.278 138.576 207.462 139.999 195.793C141.431 184.051 141.443 171.761 140.94 159.947C140.767 155.895 134.723 158.673 132.684 159.425C121.54 163.53 110.438 166.894 98.6671 168.673C93.0371 169.525 87.4162 171.237 81.6849 171.025C77.188 170.858 73.214 169.144 68.5171 169.144" stroke="#fffefe" stroke-linecap="round"/>
    <path d="M192.671 202.063C193.536 206.391 196.022 213.366 198.732 216.903C205.774 226.097 203.017 239.55 203.017 250.763C203.017 252.318 202.303 273.128 203.644 273.128C209.027 273.128 218.269 268.766 222.455 265.342C229.936 259.221 236.106 256.736 238.653 246.687C241.171 236.756 242.738 222.388 238.758 212.723C237.127 208.763 234.949 203.004 229.979 203.004C218.685 203.004 208.411 203.373 197.373 205.825" stroke="#fffefe" stroke-linecap="round"/>
    <path d="M188.908 162.56C188.908 175.902 188.908 189.244 188.908 202.586C188.908 214.498 187.275 227.765 190.058 239.476C192.882 251.361 192.671 265.157 192.671 277.412C192.671 288.148 197.856 285.632 206.361 286.766C208.944 287.11 211.173 289.054 213.52 290.11C220.578 293.286 228.444 294.951 236.041 296.328C247.239 298.357 257.242 298.505 268.229 294.969C276.09 292.439 276.685 287.286 277.112 279.398C277.989 263.164 274.348 249.272 271.573 233.52C269.311 220.68 267.935 207.641 265.982 194.748C263.072 175.542 249.688 157.634 229.979 154.617C222.643 153.494 215.187 152.667 207.772 152.318C205.033 152.189 200.384 151.455 197.948 153.311C193.262 156.881 191.44 163.84 189.849 169.144" stroke="#fffefe" stroke-linecap="round"/>
    <path d="M53.4682 208.647C53.4682 215.9 55.7808 222.372 57.0214 229.444C57.4962 232.15 59.1115 234.445 59.1115 230.28" stroke="#fffefe" stroke-linecap="round"/>
    <path d="M60.0521 202.063C61.0286 217.037 65.1023 232.365 67.5765 247.21" stroke="#fffefe" stroke-linecap="round"/>
    <path d="M76.0415 239.685C76.5721 241.609 78.7039 255.994 81.6849 250.032" stroke="#fffefe" stroke-linecap="round"/>
    <path d="M88.2688 244.388C88.2688 247.297 87.5036 250.032 91.0904 250.032" stroke="#fffefe" stroke-linecap="round"/>
    <path d="M99.5555 245.329C99.9556 249.131 102.618 252.601 103.84 256.198C104.783 258.97 104.225 261.545 107.08 262.259" stroke="#fffefe" stroke-linecap="round"/>
    <path d="M116.485 248.151C116.485 250.184 115.895 264.381 118.367 259.437" stroke="#fffefe" stroke-linecap="round"/>
    <path d="M132.475 222.755C132.792 232.273 136.237 241.511 136.237 250.972" stroke="#fffefe" stroke-linecap="round"/>
    <path d="M136.237 182.312C136.237 192.99 138.118 224.969 138.118 214.29" stroke="#fffefe" stroke-linecap="round"/>
    <path d="M127.772 165.382C126.143 167.621 126.832 171.214 126.832 173.847" stroke="#fffefe" stroke-linecap="round"/>
    <path d="M119.307 168.203C119.307 171.104 120.937 181.967 118.367 183.252" stroke="#fffefe" stroke-linecap="round"/>
    <path d="M110.842 173.847C110.577 176.76 110.103 178.868 108.02 180.43" stroke="#fffefe" stroke-linecap="round"/>
    <path d="M101.437 173.847C99.9598 174.77 100.133 175.225 99.5555 176.668" stroke="#fffefe" stroke-linecap="round"/>
    <path d="M200.195 165.382C202.255 178.426 205.682 191.347 208.033 204.362C209.626 213.182 209.601 209.018 209.601 203.004" stroke="#fffefe" stroke-linecap="round"/>
    <path d="M212.422 165.382C212.902 174.982 216.079 183.972 217.125 193.389C217.472 196.509 217.251 199.115 219.947 196.42" stroke="#fffefe" stroke-linecap="round"/>
    <path d="M223.709 173.847C225.431 183.723 227.628 193.512 229.143 203.422C230.004 209.049 231.013 201.501 231.233 200.182" stroke="#fffefe" stroke-linecap="round"/>
    <path d="M232.174 174.787C232.529 179.051 233.54 182.731 234.734 186.858C237.872 197.696 239.701 208.364 240.534 219.62C241.517 232.879 242.52 246.04 242.52 259.333C242.52 263.859 241.933 268.857 242.729 273.337C243.914 280.001 243.461 269.33 243.461 267.902" stroke="#fffefe" stroke-linecap="round"/>
    <path d="M256.628 180.43C257.11 205.774 260.391 230.856 260.391 256.25C260.391 263.923 259.45 271.553 259.45 279.189" stroke="#fffefe" stroke-linecap="round"/>
    <path d="M234.055 265.081C234.055 272.831 234.055 280.582 234.055 288.333C234.055 291.952 232.397 285.447 232.174 284.832" stroke="#fffefe" stroke-linecap="round"/>
    <path d="M225.59 266.962C222.477 272.369 221.709 282.011 214.303 282.011" stroke="#fffefe" stroke-linecap="round"/>
    <path d="M74.1604 211.469C77.3652 211.469 80.4137 210.528 83.566 210.528C88.3815 210.528 89.0524 212.346 92.6058 215.127C95.8786 217.688 100.181 217.112 104.049 217.112C109.446 217.112 111.93 218.2 115.545 221.815" stroke="#fffefe" stroke-linecap="round"/>
    <path d="M119.307 219.934C115.461 219.934 111.894 221.392 108.073 221.71C102.768 222.152 97.8282 220.336 92.6058 219.882C85.7773 219.288 82.6137 216.47 78.8632 211.469" stroke="#fffefe" stroke-linecap="round"/>
    <path d="M85.4471 207.707C82.9618 207.209 83.0226 207.463 85.6561 208.438C88.4883 209.487 91.9697 207.808 94.8004 208.752C98.3097 209.921 97.9733 216.172 102.377 216.172" stroke="#fffefe" stroke-linecap="round"/>
    <path d="M93.9121 214.29C92.0426 212.655 92.9606 227.015 95.7932 219.934" stroke="#fffefe" stroke-linecap="round"/>
    <path d="M95.7932 218.993C95.7932 225.002 93.9121 228.102 93.9121 219.934" stroke="#fffefe" stroke-linecap="round"/>
    <path d="M91.0904 216.172V217.112" stroke="#fffefe" stroke-linecap="round"/>
    <path d="M208.66 241.567C210.863 237.761 213.997 234.679 216.184 230.802C218.204 227.223 219.438 225.577 223.5 225.577C227.298 225.577 233.947 231.256 228.412 233.102" stroke="#fffefe" stroke-linecap="round"/>
    <path d="M212.422 238.745C212.422 244.602 222.464 244.863 226.74 244.388C232.446 243.754 228.643 226.749 226.531 224.637" stroke="#fffefe" stroke-linecap="round"/>
    <path d="M219.947 233.102C220.989 237.966 224.153 242.419 225.59 247.21" stroke="#fffefe" stroke-linecap="round"/>
    <path d="M225.59 233.102C222.766 234.161 223.709 239.135 223.709 241.567" stroke="#fffefe" stroke-linecap="round"/>
    <path d="M211.482 227.458C215.532 227.458 219.245 227.526 222.977 229.444C227.241 231.634 229.383 234.97 234.055 233.102" stroke="#fffefe" stroke-linecap="round"/>
    <path d="M150.345 210.528C151.376 217.225 152.168 223.516 152.227 230.384C152.28 236.636 153.633 244.96 150.555 250.763C147.914 255.739 143.084 258.429 138.954 262.05C129.274 270.538 125.01 282.105 124.219 294.76C123.604 304.601 121.716 319.606 126.414 328.725C127.215 330.28 131.171 331.084 132.684 331.651C136.621 333.128 140.99 332.801 145.12 332.801C151.523 332.801 157.492 334.099 163.827 334.577C173.004 335.27 185.23 334.025 189.117 323.918C192.181 315.952 185.928 306.657 182.011 300.195C178.259 294.003 172.513 286.046 172.031 278.562C171.553 271.161 171.978 263.609 171.978 256.198C171.978 248.2 171.259 241.96 168.373 234.565C167.151 231.435 166.056 227.128 169.157 225.577" stroke="#fffefe" stroke-linecap="round"/>
    <path d="M152.227 323.395C154.909 323.395 157.591 323.395 160.274 323.395C164.08 323.395 160.692 319.503 160.692 323.395" stroke="#fffefe" stroke-linecap="round"/>
    <path d="M95.7932 343.147C113.108 343.147 127.615 353.075 144.859 352.5C158.201 352.055 177.641 338.008 187.027 354.433" stroke="#fffefe" stroke-linecap="round"/>
    <path d="M183.265 355.374C179.744 355.694 176.444 357.046 172.867 357.046C168.037 357.046 163.344 355.488 158.497 355.374C149.033 355.151 140.065 358.196 130.594 358.196C120.694 358.196 111.376 352.39 102.377 348.79" stroke="#fffefe" stroke-linecap="round"/>
    <path d="M102.377 346.909C107.96 354.268 115.933 361.123 123.017 367.026C130.313 373.106 140.529 381.15 149.927 382.964C161.312 385.161 174.166 380.311 182.22 372.095C184.493 369.776 190.341 356.561 186.087 354.433" stroke="#fffefe" stroke-linecap="round"/>
    <path d="M34.657 149.392C23.2193 160.027 11.2476 177.164 11.2476 193.494C11.2476 204.881 15.5391 214.464 19.6081 224.637" stroke="#fffefe" stroke-linecap="round"/>
    <path d="M29.0137 203.004C29.0137 213.246 28.7342 223.727 32.2534 233.52C35.4505 242.416 43.0175 250.154 43.0175 260.064C43.0175 263.581 40.8546 267.255 39.3598 270.306C38.6321 271.791 36.5381 278.229 36.5381 273.546" stroke="#fffefe" stroke-linecap="round"/>
    <path d="M112.723 152.214C102.246 153.96 89.8378 147.328 80.065 143.853C74.906 142.019 75.559 135.209 71.7568 132.358C70.1963 131.187 72.3868 136.212 72.8541 138.105C73.9879 142.7 75.8325 147.844 75.8325 152.632C75.8325 156.14 68.6985 149.294 67.7855 148.661C64.814 146.6 62.1538 146.57 58.6935 146.57C53.7591 146.57 70.0486 152.089 70.9207 152.423C77.8124 155.063 87.2726 162.246 94.8526 162.246C99.4788 162.246 102.422 159.348 107.08 160.679" stroke="#fffefe" stroke-linecap="round"/>
    <path d="M215.244 143.749C221.628 143.429 227.444 139.663 233.742 138.523C238.329 137.693 241.737 139.013 246.073 140.196C248.724 140.918 252.78 146.545 249.104 148.452C241.411 152.441 234.195 143.457 228.412 139.986" stroke="#fffefe" stroke-linecap="round"/>
    <path d="M273.558 289.535C273.558 299.544 272.635 309.126 268.647 318.431C267.669 320.712 267.397 317.925 266.87 316.602C264.354 310.285 260.9 304.818 257.569 298.941" stroke="#fffefe" stroke-linecap="round"/>
    <path d="M43.122 47.812C43.3833 60.0922 44.9133 72.1579 45.787 84.3892C46.3038 91.6245 45.9437 87.572 45.9437 83.5531" stroke="#fffefe" stroke-linecap="round"/>
    <path d="M51.5871 44.0497C52.726 59.6395 52.8568 75.1688 53.5204 90.764C53.6938 94.8375 55.4583 82.8417 56.2898 78.8503" stroke="#fffefe" stroke-linecap="round"/>
    <path d="M60.0521 33.7036C64.0364 56.3596 66.8131 78.9856 69.3009 101.842C70.8129 115.733 70.3982 103.541 70.3982 98.602" stroke="#fffefe" stroke-linecap="round"/>
    <path d="M78.8632 30.8819C79.7448 47.3918 81.4055 63.699 83.4092 80.1044C83.897 84.0983 83.9007 92.9986 85.4471 84.4937" stroke="#fffefe" stroke-linecap="round"/>
    <path d="M95.7932 29.9414C101.241 50.0302 103.995 69.6188 106.139 90.2938C106.161 90.5026 106.452 99.5628 108.438 100.17C110.114 100.682 112.168 95.7117 112.723 94.8398" stroke="#fffefe" stroke-linecap="round"/>
    <path d="M118.367 29.9414C118.462 55.9326 119.202 81.9131 119.307 107.903C119.313 109.349 119.307 110.794 119.307 112.24C119.307 116.24 119.307 115.979 119.307 111.979C119.307 102.817 119.307 93.6554 119.307 84.4937" stroke="#fffefe" stroke-linecap="round"/>
    <path d="M133.415 19.5953C141.754 46.3371 150.165 73.9091 151.965 101.998C152.205 105.737 152.083 116.976 152.227 113.233C152.523 105.533 152.84 97.836 153.167 90.137" stroke="#fffefe" stroke-linecap="round"/>
    <path d="M153.167 30.8819C153.96 41.6299 155.064 57.0353 155.989 67.8772C156.737 76.6441 156.403 89.0338 159.594 97.6092C163.089 107.002 160.692 77.5855 160.692 67.5636" stroke="#fffefe" stroke-linecap="round"/>
    <path d="M163.513 32.7631C165.382 44.6133 169.765 72.6219 171.874 85.2252C173.463 94.7236 174.329 108.834 178.823 117.988C180.289 120.974 180.665 117.403 180.861 116.316C182.464 107.45 182.531 98.147 183.265 89.1964" stroke="#fffefe" stroke-linecap="round"/>
    <path d="M184.206 22.4169C185.321 33.1499 186.8 43.8527 188.177 54.5526C190.537 72.8921 191.572 92.1306 195.388 110.254C197.803 121.725 196.578 86.7599 195.492 75.0881" stroke="#fffefe" stroke-linecap="round"/>
    <path d="M192.671 19.5953C200.377 50.0716 208.194 80.515 215.714 111.038C220.226 129.352 217.259 100.733 217.125 97.6615" stroke="#fffefe" stroke-linecap="round"/>
    <path d="M217.125 27.1197C219.108 39.1405 222.179 50.9856 225.067 62.8086C229.659 81.604 232.982 102.435 240.691 120.339C246.162 133.045 240.802 92.6399 239.698 78.8503" stroke="#fffefe" stroke-linecap="round"/>
    <path d="M236.877 50.6336C238.808 72.1509 242.129 93.6457 245.917 114.905C246.508 118.224 247.089 121.549 247.85 124.833C248.032 125.618 248.291 127.75 248.738 127.08C251.279 123.269 248.283 105.083 248.163 101.424" stroke="#fffefe" stroke-linecap="round"/>
    <path d="M245.342 27.1197C249.064 53.1727 260.389 77.5218 266.661 102.991C267.277 105.492 267.915 114.272 267.915 107.067" stroke="#fffefe" stroke-linecap="round"/>
    <path d="M17.727 196.42C11.1897 195.787 -0.746775 189.831 1.21503 202.063C1.99266 206.912 4.72408 211.315 7.22414 215.44C9.26208 218.803 9.08314 220.769 9.41877 224.741C10.3413 235.657 13.2113 247.404 18.7721 256.981C20.2306 259.493 23.1572 264.14 26.192 264.14" stroke="#fffefe" stroke-linecap="round"/>
    <path d="M54.4087 180.43C42.5446 179.518 37.2459 191.054 30.8948 199.137C28.0928 202.703 28.5083 191.72 28.3867 190.724C27.6981 185.09 26.4802 181.111 23.3704 176.668" stroke="#fffefe" stroke-linecap="round"/>
    <path d="M136.237 196.42C144.987 199.482 142.881 215.37 145.12 222.337C146.125 225.465 149.656 224.637 152.227 224.637" stroke="#fffefe" stroke-linecap="round"/>
    <path d="M166.335 225.577C172.518 224.252 177.572 220.546 183.997 219.934C188.551 219.5 190.298 205.623 192.671 202.063" stroke="#fffefe" stroke-linecap="round"/>
    <path d="M187.027 190.777C182.168 190.777 176.22 189.849 172.187 193.18C167.44 197.102 173.107 205.826 172.71 210.894C171.744 223.208 162.453 214.186 158.81 208.856C153.085 200.48 150.526 190.465 144.702 182.312" stroke="#fffefe" stroke-linecap="round"/>
    <path d="M149.405 197.36C148.1 205.996 148.425 215.62 150.764 224.114C151.76 227.734 152.227 222.595 152.227 221.815" stroke="#fffefe" stroke-linecap="round"/>
    <path d="M149.405 207.707C151.456 211.657 154.224 215.483 155.362 219.829C156.094 222.627 155.539 223.471 157.87 224.637" stroke="#fffefe" stroke-linecap="round"/>
    <path d="M163.513 219.934C163.706 224.94 164.203 230.531 169.157 225.577" stroke="#fffefe" stroke-linecap="round"/>
    <path d="M177.622 202.063C179.464 208.945 180.687 216.685 183.631 223.226C184.401 224.937 184.206 220.347 184.206 219.934" stroke="#fffefe" stroke-linecap="round"/>
</svg>
